<?xml version="1.0" encoding="UTF-8" standalone="no"?>
<!-- Created with Inkscape (http://www.inkscape.org/) -->

<svg
   width="300"
   height="300"
   viewBox="0 0 79.374998 79.375"
   version="1.1"
   id="svg1"
   xml:space="preserve"
   xmlns="http://www.w3.org/2000/svg"
   xmlns:svg="http://www.w3.org/2000/svg"><defs
     id="defs1" /><g
     id="layer3"><rect
       style="opacity:1;fill:#ffffff;fill-opacity:1;stroke:none;stroke-width:9.7317;stroke-linecap:round;stroke-linejoin:round;stroke-dasharray:none;stroke-opacity:1;paint-order:normal"
       id="rect30"
       width="68.090416"
       height="70.379166"
       x="7.4083333"
       y="7.6729164"
       ry="26.298889" /><path
       d="M 24.321525,-5e-6 C 10.847405,-5e-6 5e-6,10.847395 5e-6,24.321505 v 30.73198 c 0,13.47412 10.8474,24.32152 24.32152,24.32152 h 30.73197 c 13.4741,0 24.3215,-10.8474 24.3215,-24.32152 v -30.73198 c 0,-13.47411 -10.8474,-24.32151 -24.3215,-24.32151 z m 17.66817,10.52597 v 16.74523 h 12.27677 l -16.88476,25.59017 v -16.94728 h -12.27263 z m 22.08082,31.63993 a 4.5,4.5 0 0 1 4.49997,4.49999 v 17.68368 a 4.50045,4.50045 0 0 1 -4.49997,4.49998 h -48.7655 a 4.50045,4.50045 0 0 1 -4.49998,-4.49998 v -17.30851 a 4.5,4.5 0 0 1 4.49998,-4.49999 4.5,4.5 0 0 1 4.49999,4.49999 v 12.80852 h 39.76553 v -13.18369 a 4.5,4.5 0 0 1 4.49998,-4.49999 z"
       style="fill:#2492ff;stroke:#2492ff;stroke-linecap:round"
       id="path19-2" /></g></svg>
